<?xml version="1.0" standalone="no"?>
<!DOCTYPE svg PUBLIC "-//W3C//DTD SVG 20010904//EN"
 "http://www.w3.org/TR/2001/REC-SVG-20010904/DTD/svg10.dtd">
<svg version="1.0" xmlns="http://www.w3.org/2000/svg"
 width="699.000000pt" height="422.000000pt" viewBox="0 0 699.000000 422.000000"
 preserveAspectRatio="xMidYMid meet">

<g transform="translate(0.000000,422.000000) scale(0.100000,-0.100000)"
fill="#000000" stroke="none">
<path d="M452 4170 c24 -27 48 -50 54 -50 6 0 30 23 53 50 l42 50 -96 0 -96 0
43 -50z"/>
<path d="M6486 4188 c15 -18 44 -53 65 -77 l38 -43 38 30 c21 17 58 51 83 76
l44 46 -148 0 -148 0 28 -32z"/>
<path d="M1150 4065 c-369 -75 -622 -366 -694 -800 -15 -89 -16 -199 -14
-1030 4 -928 4 -930 26 -1015 46 -171 130 -337 233 -456 110 -127 258 -208
452 -249 79 -17 253 -19 347 -5 249 40 478 190 643 422 135 189 227 374 387
773 91 226 184 447 240 569 22 48 30 78 26 97 -16 84 -273 683 -402 942 -212
422 -492 668 -853 748 -102 22 -291 24 -391 4z m217 -400 c154 -46 295 -184
438 -429 68 -116 310 -610 380 -774 43 -102 47 -115 35 -140 -6 -15 -56 -133
-110 -262 -136 -324 -279 -634 -352 -762 -145 -253 -289 -381 -448 -395 -73
-7 -117 8 -174 58 -52 46 -77 104 -100 231 -20 110 -31 1366 -17 1848 13 423
25 493 103 567 78 74 141 89 245 58z"/>
<path d="M3767 3789 c-28 -16 -39 -57 -27 -94 7 -20 51 -72 115 -134 l104
-101 -633 0 c-626 0 -634 0 -660 -21 -21 -16 -26 -29 -26 -64 0 -46 17 -71 54
-83 12 -4 302 -7 646 -7 l625 0 -65 -60 c-138 -127 -153 -151 -127 -202 19
-37 58 -57 91 -49 37 9 340 283 409 370 l30 38 -84 76 c-46 42 -145 136 -220
209 -128 125 -139 133 -175 133 -22 0 -47 -5 -57 -11z"/>
<path d="M3453 2858 c-28 -31 -34 -66 -18 -97 7 -14 58 -70 114 -124 56 -53
101 -98 101 -100 0 -1 -165 -3 -368 -5 l-367 -3 -22 -25 c-30 -33 -29 -76 1
-111 l24 -28 363 2 362 3 -96 -93 c-84 -79 -97 -97 -97 -124 0 -68 75 -108
132 -71 83 55 334 302 363 359 l17 31 -204 204 c-198 199 -204 204 -244 204
-29 0 -46 -6 -61 -22z"/>
<path d="M4851 2088 c-75 -195 -164 -409 -212 -509 l-60 -127 51 -101 c120
-240 232 -405 374 -549 198 -203 394 -298 636 -309 135 -7 224 8 354 60 150
60 271 148 350 256 44 60 46 71 6 37 -78 -65 -248 -83 -400 -42 -240 65 -411
149 -514 250 -137 134 -223 289 -456 818 -58 131 -108 238 -113 238 -4 0 -11
-10 -16 -22z"/>
<path d="M3423 1900 c-27 -11 -43 -40 -43 -78 0 -23 14 -43 63 -90 34 -33 75
-70 90 -83 l28 -24 -436 0 -437 0 -24 -28 c-26 -31 -32 -81 -11 -108 29 -38
46 -39 487 -39 l432 0 -91 -87 c-110 -105 -121 -134 -73 -183 35 -35 64 -38
107 -11 41 26 280 243 346 315 l53 58 -35 32 c-199 177 -358 315 -376 324 -25
14 -49 14 -80 2z"/>
</g>
</svg>
